<svg xmlns="http://www.w3.org/2000/svg" viewBox="0 0 240 150" width="240" height="150" stroke-linecap="round" stroke-linejoin="round">
  <g id="silhouette" fill="none" stroke="#c3c9d1" stroke-width="1.3">
    <path id="frame_main" d="M 80 50 C 100 45 122 48 150 60 M 150 60 L 212 55"/>
    <path id="frame_down" d="M 78 56 C 84 72 88 88 95 99"/>
    <path id="frame_rear" d="M 137 97 L 151 77 M 151 77 L 150 60 M 137 106 L 152 92"/>
    <path id="tank" d="M 94 68 C 96 50 104 40 120 39 C 136 38 150 46 155 56 L 155 70 C 140 74 110 74 94 70 Z M 119.4 41 C 119.4 42.88 117.88 44.4 116 44.4 C 114.12 44.4 112.6 42.88 112.6 41 C 112.6 39.12 114.12 37.6 116 37.6 C 117.88 37.6 119.4 39.12 119.4 41 Z"/>
    <path id="seat" d="M 150 68 C 152 58 160 52 174 51 L 206 50 C 210 50 213 53 213 57 L 213 64 C 200 69 172 71 150 68 Z"/>
    <path id="tail" d="M 212 52 L 218 52 C 219.1 52 220 52.9 220 54 L 220 58 C 220 59.1 219.1 60 218 60 L 212 60 C 210.9 60 210 59.1 210 58 L 210 54 C 210 52.9 210.9 52 212 52 Z M 214 60 C 216 64 218 68 218 72"/>
    <path id="fender_front" d="M 11.29 96.72 C 15.46 83.88 26.37 74.4 39.66 72.05 C 52.95 69.71 66.45 74.89 74.76 85.53 L 71.61 87.99 C 64.21 78.52 52.19 73.91 40.36 75.99 C 28.52 78.08 18.8 86.53 15.09 97.96 Z"/>
    <path id="fender_rear" d="M 162.57 77.76 C 178.17 63.72 202.2 64.98 216.24 80.57 L 213.27 83.25 C 200.7 69.3 179.2 68.17 165.25 80.73 Z"/>
    <path id="fork_l" d="M 72.7 47.07 L 44.79 104.75 Q 43.75 106.91 41.59 105.87 L 40.51 105.34 Q 38.35 104.3 39.39 102.14 L 67.3 44.46 Q 68.35 42.3 70.51 43.34 L 71.59 43.87 Q 73.75 44.91 72.7 47.07 Z"/>
    <path id="fork_r" d="M 82.61 51.86 L 54.7 109.54 Q 53.65 111.7 51.49 110.66 L 50.41 110.13 Q 48.25 109.09 49.3 106.93 L 77.21 49.25 Q 78.25 47.09 80.41 48.13 L 81.49 48.66 Q 83.65 49.7 82.61 51.86 Z"/>
    <path id="yoke" d="M 72.57 39.11 L 85.09 44.67 Q 87.83 45.89 86.61 48.63 L 85.39 51.37 Q 84.17 54.11 81.43 52.89 L 68.91 47.33 Q 66.17 46.11 67.39 43.37 L 68.61 40.63 Q 69.83 37.89 72.57 39.11 Z M 79 46 C 79 47.1 78.1 48 77 48 C 75.9 48 75 47.1 75 46 C 75 44.9 75.9 44 77 44 C 78.1 44 79 44.9 79 46 Z"/>
    <path id="handlebar" d="M 70.52 32.35 L 92.65 38.31 Q 94.58 38.83 94.06 40.76 L 93.94 41.24 Q 93.42 43.17 91.48 42.65 L 69.35 36.69 Q 67.42 36.17 67.94 34.24 L 68.06 33.76 Q 68.58 31.83 70.52 32.35 Z M 71.7 34 C 71.7 35.77 70.27 37.2 68.5 37.2 C 66.73 37.2 65.3 35.77 65.3 34 C 65.3 32.23 66.73 30.8 68.5 30.8 C 70.27 30.8 71.7 32.23 71.7 34 Z M 88 39 L 92 24"/>
    <path id="headlight" d="M 63.37 38.96 L 70.63 41.04 Q 74 42 74 45.5 L 74 54.5 Q 74 58 70.66 56.96 L 61.34 54.04 Q 58 53 58.46 49.53 L 59.54 41.47 Q 60 38 63.37 38.96 Z"/>
    <path id="cluster" d="M 80.5 28 L 90.5 28 C 91.88 28 93 29.12 93 30.5 L 93 34.5 C 93 35.88 91.88 37 90.5 37 L 80.5 37 C 79.12 37 78 35.88 78 34.5 L 78 30.5 C 78 29.12 79.12 28 80.5 28 Z"/>
    <path id="engine_block" d="M 101 98 L 131 98 C 133.76 98 136 100.24 136 103 L 136 119 C 136 121.76 133.76 124 131 124 L 101 124 C 98.24 124 96 121.76 96 119 L 96 103 C 96 100.24 98.24 98 101 98 Z M 101.04 102.68 L 95.28 91.16 Q 94.16 88.92 96.4 87.8 L 111.6 80.2 Q 113.84 79.08 114.96 81.32 L 120.72 92.84 Q 121.84 95.08 119.6 96.2 L 104.4 103.8 Q 102.16 104.92 101.04 102.68 Z M 92.33 85.51 L 89.01 76.22 Q 88.17 73.87 90.52 73.03 L 107.48 66.97 Q 109.83 66.13 110.67 68.49 L 113.99 77.78 Q 114.83 80.13 112.48 80.97 L 95.52 87.03 Q 93.17 87.87 92.33 85.51 Z M 99.6 99.8 L 119.28 89.96 M 97.76 96.12 L 117.44 86.28 M 95.92 92.44 L 115.6 82.6"/>
    <path id="radiator_shell" d="M 78 82.5 L 87 82.5 C 88.1 82.5 89 83.4 89 84.5 L 89 111.5 C 89 112.6 88.1 113.5 87 113.5 L 78 113.5 C 76.9 113.5 76 112.6 76 111.5 L 76 84.5 C 76 83.4 76.9 82.5 78 82.5 Z"/>
    <path id="exhaust" d="M 99 88 C 90 96 89 108 94 116 C 102 127 130 129 150 125 M 154 114 L 202 114 C 205.31 114 208 116.69 208 120 L 208 121 C 208 124.31 205.31 127 202 127 L 154 127 C 150.69 127 148 124.31 148 121 L 148 120 C 148 116.69 150.69 114 154 114 Z M 202 116 L 202 125"/>
    <path id="swingarm" d="M 139.5 100.98 L 185.5 100.52 Q 188 100.5 188 103 L 188 109 Q 188 111.5 185.51 111.67 L 139.49 114.83 Q 137 115 137 112.5 L 137 103.5 Q 137 101 139.5 100.98 Z"/>
    <path id="shock_body" d="M 148.63 96.57 L 145.45 73.52 Q 145.04 70.55 148.01 70.14 L 149.99 69.86 Q 152.96 69.45 153.37 72.43 L 156.55 95.48 Q 156.96 98.45 153.99 98.86 L 152.01 99.14 Q 149.04 99.55 148.63 96.57 Z"/>
    <path id="pegs_stand" d="M 130 124 L 140 124 C 141.1 124 142 124.9 142 126 L 142 126 C 142 127.1 141.1 128 140 128 L 130 128 C 128.9 128 128 127.1 128 126 L 128 126 C 128 124.9 128.9 124 130 124 Z M 124 123 C 120 128 116 133 114 137"/>
  </g>
  <g id="glass" fill="none" stroke="#c3c9d1" stroke-width="1">
    <path id="screen" d="M 64 36 C 62 28 64 22 70 18 L 76 20 C 71 24 69 30 70 37 Z"/>
    <path id="mirror_glass" d="M 98 21 C 98 22.88 95.76 24.4 93 24.4 C 90.24 24.4 88 22.88 88 21 C 88 19.12 90.24 17.6 93 17.6 C 95.76 17.6 98 19.12 98 21 Z"/>
    <path id="cluster_face" d="M 81.5 30 L 89.5 30 C 90.33 30 91 30.67 91 31.5 L 91 33.5 C 91 34.33 90.33 35 89.5 35 L 81.5 35 C 80.67 35 80 34.33 80 33.5 L 80 31.5 C 80 30.67 80.67 30 81.5 30 Z M 85.5 30 L 85.5 35"/>
  </g>
  <g id="wheels" fill="none" stroke="#c3c9d1" stroke-width="1.2">
    <path id="wheel_front" d="M 76 108 C 76 124.57 62.57 138 46 138 C 29.43 138 16 124.57 16 108 C 16 91.43 29.43 78 46 78 C 62.57 78 76 91.43 76 108 Z M 65.5 108 C 65.5 118.77 56.77 127.5 46 127.5 C 35.23 127.5 26.5 118.77 26.5 108 C 26.5 97.23 35.23 88.5 46 88.5 C 56.77 88.5 65.5 97.23 65.5 108 Z M 50.5 108 C 50.5 110.49 48.49 112.5 46 112.5 C 43.51 112.5 41.5 110.49 41.5 108 C 41.5 105.51 43.51 103.5 46 103.5 C 48.49 103.5 50.5 105.51 50.5 108 Z"/>
    <path id="wheel_rear" d="M 220 106 C 220 123.67 205.67 138 188 138 C 170.33 138 156 123.67 156 106 C 156 88.33 170.33 74 188 74 C 205.67 74 220 88.33 220 106 Z M 208.5 106 C 208.5 117.32 199.32 126.5 188 126.5 C 176.68 126.5 167.5 117.32 167.5 106 C 167.5 94.68 176.68 85.5 188 85.5 C 199.32 85.5 208.5 94.68 208.5 106 Z M 193 106 C 193 108.76 190.76 111 188 111 C 185.24 111 183 108.76 183 106 C 183 103.24 185.24 101 188 101 C 190.76 101 193 103.24 193 106 Z"/>
  </g>
  <g id="zones" fill="none" stroke="#8f99a8" stroke-width="1.3">
    <path id="zone_motor" data-zone="motor" d="M 96 68 L 138 68 C 141.31 68 144 70.69 144 74 L 144 120 C 144 123.31 141.31 126 138 126 L 96 126 C 92.69 126 90 123.31 90 120 L 90 74 C 90 70.69 92.69 68 96 68 Z"/>
    <path id="zone_refrigeracion" data-zone="refrigeracion" d="M 77.5 81.5 L 87.5 81.5 C 88.88 81.5 90 82.62 90 84 L 90 112 C 90 113.38 88.88 114.5 87.5 114.5 L 77.5 114.5 C 76.12 114.5 75 113.38 75 112 L 75 84 C 75 82.62 76.12 81.5 77.5 81.5 Z"/>
    <path id="zone_transmision" data-zone="transmision" d="M 144 92 L 200 92 C 204.42 92 208 95.58 208 100 L 208 114 C 208 118.42 204.42 122 200 122 L 144 122 C 139.58 122 136 118.42 136 114 L 136 100 C 136 95.58 139.58 92 144 92 Z"/>
    <path id="zone_frenos" data-zone="frenos" d="M 61 108 C 61 116.28 54.28 123 46 123 C 37.72 123 31 116.28 31 108 C 31 99.72 37.72 93 46 93 C 54.28 93 61 99.72 61 108 Z M 195.6 106 C 195.6 110.2 192.2 113.6 188 113.6 C 183.8 113.6 180.4 110.2 180.4 106 C 180.4 101.8 183.8 98.4 188 98.4 C 192.2 98.4 195.6 101.8 195.6 106 Z"/>
    <path id="zone_llantas" data-zone="llantas" d="M 76 108 C 76 124.57 62.57 138 46 138 C 29.43 138 16 124.57 16 108 C 16 91.43 29.43 78 46 78 C 62.57 78 76 91.43 76 108 Z M 220 106 C 220 123.67 205.67 138 188 138 C 170.33 138 156 123.67 156 106 C 156 88.33 170.33 74 188 74 C 205.67 74 220 88.33 220 106 Z"/>
    <path id="zone_electrico" data-zone="electrico" d="M 156.5 62 L 177.5 62 C 178.88 62 180 63.12 180 64.5 L 180 77.5 C 180 78.88 178.88 80 177.5 80 L 156.5 80 C 155.12 80 154 78.88 154 77.5 L 154 64.5 C 154 63.12 155.12 62 156.5 62 Z"/>
    <path id="zone_suspension" data-zone="suspension" d="M 82.82 54.86 L 57.18 107.85 Q 55 112.36 50.5 110.18 L 41.5 105.82 Q 37 103.64 39.18 99.14 L 64.82 46.15 Q 67 41.64 71.5 43.82 L 80.5 48.18 Q 85 50.36 82.82 54.86 Z M 146.01 95.93 L 143.11 74.85 Q 142.56 70.89 146.52 70.34 L 151.48 69.66 Q 155.44 69.11 155.99 73.07 L 158.89 94.15 Q 159.44 98.11 155.48 98.66 L 150.52 99.34 Q 146.56 99.89 146.01 95.93 Z"/>
    <path id="zone_combustible" data-zone="combustible" d="M 104 36 L 142 36 C 147.52 36 152 40.48 152 46 L 152 54 C 152 59.52 147.52 64 142 64 L 104 64 C 98.48 64 94 59.52 94 54 L 94 46 C 94 40.48 98.48 36 104 36 Z"/>
  </g>
  <g id="enginebay" fill="none" stroke="#3b4552" stroke-width="0.75">
    <path id="comp_aceite_motor" data-zone="motor" data-component="aceite_motor" data-fluid="oil" d="M 101 110 L 107 110 C 108.1 110 109 110.9 109 112 L 109 117 C 109 118.1 108.1 119 107 119 L 101 119 C 99.9 119 99 118.1 99 117 L 99 112 C 99 110.9 99.9 110 101 110 Z M 102 111.5 L 102 117.5 M 104.5 111.5 L 104.5 117.5 M 107 111.5 L 107 117.5 M 116.4 124 C 116.4 125.33 115.33 126.4 114 126.4 C 112.67 126.4 111.6 125.33 111.6 124 C 111.6 122.67 112.67 121.6 114 121.6 C 115.33 121.6 116.4 122.67 116.4 124 Z M 131.6 116 C 131.6 117.44 130.44 118.6 129 118.6 C 127.56 118.6 126.4 117.44 126.4 116 C 126.4 114.56 127.56 113.4 129 113.4 C 130.44 113.4 131.6 114.56 131.6 116 Z M 130.1 116 C 130.1 116.61 129.61 117.1 129 117.1 C 128.39 117.1 127.9 116.61 127.9 116 C 127.9 115.39 128.39 114.9 129 114.9 C 129.61 114.9 130.1 115.39 130.1 116 Z"/>
    <path id="comp_bujia" data-zone="motor" data-component="bujia" d="M 111.6 78 C 111.6 79.44 110.44 80.6 109 80.6 C 107.56 80.6 106.4 79.44 106.4 78 C 106.4 76.56 107.56 75.4 109 75.4 C 110.44 75.4 111.6 76.56 111.6 78 Z M 110.1 78 C 110.1 78.61 109.61 79.1 109 79.1 C 108.39 79.1 107.9 78.61 107.9 78 C 107.9 77.39 108.39 76.9 109 76.9 C 109.61 76.9 110.1 77.39 110.1 78 Z M 111.5 77.5 C 117 76 122 73 127 70"/>
    <path id="comp_filtro_aire_motor" data-zone="motor" data-component="filtro_aire_motor" d="M 127 74 L 141 74 C 142.66 74 144 75.34 144 77 L 144 87 C 144 88.66 142.66 90 141 90 L 127 90 C 125.34 90 124 88.66 124 87 L 124 77 C 124 75.34 125.34 74 127 74 Z M 129 76 L 129 88 M 134 76 L 134 88 M 139 76 L 139 88 M 124 82 C 119 82 117 84 112 86"/>
    <path id="comp_ajuste_valvulas" data-zone="motor" data-component="ajuste_valvulas" d="M 93.95 84.93 L 90.64 75.64 Q 89.79 73.29 92.15 72.45 L 105.85 67.55 Q 108.21 66.71 109.05 69.07 L 112.36 78.36 Q 113.21 80.71 110.85 81.55 L 97.15 86.45 Q 94.79 87.29 93.95 84.93 Z M 93.59 82.19 L 110.91 76.01 M 92.09 77.99 L 109.41 71.81 M 111.3 85 C 111.3 85.72 110.72 86.3 110 86.3 C 109.28 86.3 108.7 85.72 108.7 85 C 108.7 84.28 109.28 83.7 110 83.7 C 110.72 83.7 111.3 84.28 111.3 85 Z M 95.3 68.5 C 95.3 69.22 94.72 69.8 94 69.8 C 93.28 69.8 92.7 69.22 92.7 68.5 C 92.7 67.78 93.28 67.2 94 67.2 C 94.72 67.2 95.3 67.78 95.3 68.5 Z"/>
    <path id="comp_refrigerante" data-zone="refrigeracion" data-component="refrigerante" data-fluid="coolant" d="M 78.5 84 L 86.5 84 C 87.33 84 88 84.67 88 85.5 L 88 110.5 C 88 111.33 87.33 112 86.5 112 L 78.5 112 C 77.67 112 77 111.33 77 110.5 L 77 85.5 C 77 84.67 77.67 84 78.5 84 Z M 77 88 L 88 88 M 77 108 L 88 108 M 78.5 90.22 L 86.5 90.22 M 78.5 92.44 L 86.5 92.44 M 78.5 94.67 L 86.5 94.67 M 78.5 96.89 L 86.5 96.89 M 78.5 99.11 L 86.5 99.11 M 78.5 101.33 L 86.5 101.33 M 78.5 103.56 L 86.5 103.56 M 78.5 105.78 L 86.5 105.78 M 84.1 86 C 84.1 86.88 83.38 87.6 82.5 87.6 C 81.62 87.6 80.9 86.88 80.9 86 C 80.9 85.12 81.62 84.4 82.5 84.4 C 83.38 84.4 84.1 85.12 84.1 86 Z"/>
    <path id="comp_lubricacion_cadena" data-zone="transmision" data-component="lubricacion_cadena" d="M 184.4 92.16 L 140.34 103.61 C 142.88 102.95 145.57 103.86 147.19 105.92 C 148.81 107.98 149.06 110.81 147.81 113.12 C 146.57 115.43 144.08 116.79 141.47 116.58 L 186.85 120.25 C 179.89 119.69 174.36 114.19 173.75 107.24 C 173.15 100.29 177.65 93.92 184.4 92.16 Z"/>
    <path id="comp_kit_arrastre" data-zone="transmision" data-component="kit_arrastre" d="M 147.5 110 C 147.5 113.04 145.04 115.5 142 115.5 C 138.96 115.5 136.5 113.04 136.5 110 C 136.5 106.96 138.96 104.5 142 104.5 C 145.04 104.5 147.5 106.96 147.5 110 Z M 147.5 110 L 148.9 110 M 146.21 113.54 L 147.29 114.44 M 142.96 115.42 L 143.2 116.8 M 139.25 114.76 L 138.55 115.98 M 136.83 111.88 L 135.52 112.36 M 136.83 108.12 L 135.52 107.64 M 139.25 105.24 L 138.55 104.02 M 142.96 104.58 L 143.2 103.2 M 146.21 106.46 L 147.29 105.56 M 201 106 C 201 113.18 195.18 119 188 119 C 180.82 119 175 113.18 175 106 C 175 98.82 180.82 93 188 93 C 195.18 93 201 98.82 201 106 Z M 201 106 L 202.6 106 M 200.01 110.97 L 201.49 111.59 M 197.19 115.19 L 198.32 116.32 M 192.97 118.01 L 193.59 119.49 M 188 119 L 188 120.6 M 183.03 118.01 L 182.41 119.49 M 178.81 115.19 L 177.68 116.32 M 175.99 110.97 L 174.51 111.59 M 175 106 L 173.4 106 M 175.99 101.03 L 174.51 100.41 M 178.81 96.81 L 177.68 95.68 M 183.03 93.99 L 182.41 92.51 M 188 93 L 188 91.4 M 192.97 93.99 L 193.59 92.51 M 197.19 96.81 L 198.32 95.68 M 200.01 101.03 L 201.49 100.41"/>
    <path id="comp_embrague" data-zone="transmision" data-component="embrague" d="M 138 112 C 138 116.42 134.42 120 130 120 C 125.58 120 122 116.42 122 112 C 122 107.58 125.58 104 130 104 C 134.42 104 138 107.58 138 112 Z M 133 112 C 133 113.66 131.66 115 130 115 C 128.34 115 127 113.66 127 112 C 127 110.34 128.34 109 130 109 C 131.66 109 133 110.34 133 112 Z M 135.34 116.24 C 135.34 116.85 134.85 117.34 134.24 117.34 C 133.64 117.34 133.14 116.85 133.14 116.24 C 133.14 115.64 133.64 115.14 134.24 115.14 C 134.85 115.14 135.34 115.64 135.34 116.24 Z M 126.86 116.24 C 126.86 116.85 126.36 117.34 125.76 117.34 C 125.15 117.34 124.66 116.85 124.66 116.24 C 124.66 115.64 125.15 115.14 125.76 115.14 C 126.36 115.14 126.86 115.64 126.86 116.24 Z M 126.86 107.76 C 126.86 108.36 126.36 108.86 125.76 108.86 C 125.15 108.86 124.66 108.36 124.66 107.76 C 124.66 107.15 125.15 106.66 125.76 106.66 C 126.36 106.66 126.86 107.15 126.86 107.76 Z M 135.34 107.76 C 135.34 108.36 134.85 108.86 134.24 108.86 C 133.64 108.86 133.14 108.36 133.14 107.76 C 133.14 107.15 133.64 106.66 134.24 106.66 C 134.85 106.66 135.34 107.15 135.34 107.76 Z"/>
    <path id="comp_pastillas_freno" data-zone="frenos" data-component="pastillas_freno" d="M 61.45 116.22 C 59.22 120.41 55.39 123.51 50.82 124.82 L 49.17 119.05 C 52.17 118.19 54.69 116.15 56.15 113.4 Z C 56.77 118.35 53.89 120.68 50.48 121.79 M 61 108 C 61 116.28 54.28 123 46 123 C 37.72 123 31 116.28 31 108 C 31 99.72 37.72 93 46 93 C 54.28 93 61 99.72 61 108 Z M 53.5 108 C 53.5 112.14 50.14 115.5 46 115.5 C 41.86 115.5 38.5 112.14 38.5 108 C 38.5 103.86 41.86 100.5 46 100.5 C 50.14 100.5 53.5 103.86 53.5 108 Z"/>
    <path id="comp_liquido_frenos" data-zone="frenos" data-component="liquido_frenos" data-fluid="brake" d="M 85.5 32 L 93.5 32 C 94.33 32 95 32.67 95 33.5 L 95 37.5 C 95 38.33 94.33 39 93.5 39 L 85.5 39 C 84.67 39 84 38.33 84 37.5 L 84 33.5 C 84 32.67 84.67 32 85.5 32 Z M 91.4 35.5 C 91.4 36.55 90.55 37.4 89.5 37.4 C 88.45 37.4 87.6 36.55 87.6 35.5 C 87.6 34.45 88.45 33.6 89.5 33.6 C 90.55 33.6 91.4 34.45 91.4 35.5 Z"/>
    <path id="comp_zapatas_freno" data-zone="frenos" data-component="zapatas_freno" d="M 195.6 106 C 195.6 110.2 192.2 113.6 188 113.6 C 183.8 113.6 180.4 110.2 180.4 106 C 180.4 101.8 183.8 98.4 188 98.4 C 192.2 98.4 195.6 101.8 195.6 106 Z C 184.78 110.71 183.02 108.8 182.82 106.45 C 182.61 104.11 184.01 101.92 186.22 101.11 C 191.62 101.59 193.2 103.65 193.2 106 C 193.2 108.35 191.62 110.41 189.35 111.02"/>
    <path id="comp_llantas" data-zone="llantas" data-component="llantas" d="M 76 108 C 76 124.57 62.57 138 46 138 C 29.43 138 16 124.57 16 108 C 16 91.43 29.43 78 46 78 C 62.57 78 76 91.43 76 108 Z M 220 106 C 220 123.67 205.67 138 188 138 C 170.33 138 156 123.67 156 106 C 156 88.33 170.33 74 188 74 C 205.67 74 220 88.33 220 106 Z"/>
    <path id="comp_rayos_ruedas" data-zone="llantas" data-component="rayos_ruedas" d="M 51.38 109.14 L 65.07 112.05 M 47.7 113.23 L 52.03 126.55 M 42.32 112.09 L 32.95 122.49 M 40.62 106.86 L 26.93 103.95 M 44.3 102.77 L 39.97 89.45 M 49.68 103.91 L 59.05 93.51 M 193.48 108.44 L 206.73 114.34 M 188.63 111.97 L 190.14 126.39 M 183.15 109.53 L 171.42 118.05 M 182.52 103.56 L 169.27 97.66 M 187.37 100.03 L 185.86 85.61 M 192.85 102.47 L 204.58 93.95"/>
    <path id="comp_bateria" data-zone="electrico" data-component="bateria" d="M 157.5 64 L 176.5 64 C 177.33 64 178 64.67 178 65.5 L 178 76.5 C 178 77.33 177.33 78 176.5 78 L 157.5 78 C 156.67 78 156 77.33 156 76.5 L 156 65.5 C 156 64.67 156.67 64 157.5 64 Z M 156 68.5 L 178 68.5 M 162.5 66.2 C 162.5 67.03 161.83 67.7 161 67.7 C 160.17 67.7 159.5 67.03 159.5 66.2 C 159.5 65.37 160.17 64.7 161 64.7 C 161.83 64.7 162.5 65.37 162.5 66.2 Z M 174.5 66.2 C 174.5 67.03 173.83 67.7 173 67.7 C 172.17 67.7 171.5 67.03 171.5 66.2 C 171.5 65.37 172.17 64.7 173 64.7 C 173.83 64.7 174.5 65.37 174.5 66.2 Z M 171 74 L 175 74 M 173 72 L 173 76"/>
    <path id="comp_aceite_horquilla" data-zone="suspension" data-component="aceite_horquilla" data-fluid="oil" d="M 62.88 69.09 L 45.51 104.99 Q 44.42 107.24 42.17 106.15 L 39.92 105.06 Q 37.67 103.97 38.76 101.72 L 56.13 65.83 Q 57.22 63.57 59.47 64.66 L 61.72 65.75 Q 63.97 66.84 62.88 69.09 Z M 72.78 73.88 L 55.42 109.78 Q 54.33 112.03 52.08 110.94 L 49.83 109.85 Q 47.58 108.76 48.66 106.51 L 66.03 70.62 Q 67.12 68.37 69.37 69.45 L 71.62 70.54 Q 73.87 71.63 72.78 73.88 Z M 64.3 67.88 L 56.2 63.96 M 74.2 72.68 L 66.1 68.76"/>
    <path id="comp_amortiguador_trasero" data-zone="suspension" data-component="amortiguador_trasero" d="M 148.13 96.64 L 144.95 73.59 Q 144.54 70.61 147.51 70.2 L 150.49 69.8 Q 153.46 69.39 153.87 72.36 L 157.05 95.41 Q 157.46 98.39 154.49 98.8 L 151.51 99.2 Q 148.54 99.61 148.13 96.64 Z M 147.25 93.88 L 157.15 92.52 M 146.65 89.53 L 156.55 88.17 M 146.05 85.18 L 155.95 83.82 M 145.45 80.83 L 155.35 79.47 M 144.85 76.48 L 154.75 75.12 M 155 99 C 155 100.1 154.1 101 153 101 C 151.9 101 151 100.1 151 99 C 151 97.9 151.9 97 153 97 C 154.1 97 155 97.9 155 99 Z M 151 70 C 151 71.1 150.1 72 149 72 C 147.9 72 147 71.1 147 70 C 147 68.9 147.9 68 149 68 C 150.1 68 151 68.9 151 70 Z"/>
    <path id="comp_filtro_combustible" data-zone="combustible" data-component="filtro_combustible" d="M 138 56 L 145 56 C 146.1 56 147 56.9 147 58 L 147 62 C 147 63.1 146.1 64 145 64 L 138 64 C 136.9 64 136 63.1 136 62 L 136 58 C 136 56.9 136.9 56 138 56 Z M 137.5 58.5 L 145.5 58.5 M 137.5 60.5 L 145.5 60.5 M 137.5 62.5 L 145.5 62.5 M 136 60 L 128 60"/>
  </g>
  <g id="hoses" fill="none" stroke="#3b4552" stroke-width="0.9">
    <path id="hose_coolant_1" data-zone="refrigeracion" data-fluid="coolant" d="M 82.5 84 L 82.5 78.5 C 82.5 77.12 83.62 76 85 76 L 100 76"/>
    <path id="hose_coolant_2" data-zone="refrigeracion" data-fluid="coolant" d="M 82.5 112 L 82.5 115.5 C 82.5 116.88 83.62 118 85 118 L 96 118"/>
    <path id="hose_brake_1" data-zone="frenos" data-fluid="brake" d="M 89 39 C 84 52 74 74 62 96"/>
  </g>
  <g id="hit" fill="#000" opacity="0" stroke="none">
    <path id="hit_suspension" data-zone="suspension" d="M 10 14 L 78 14 L 78 80 L 10 80 Z"/>
    <path id="hit_frenos" data-zone="frenos" d="M 10 82 L 78 82 L 78 148 L 10 148 Z"/>
    <path id="hit_combustible" data-zone="combustible" d="M 88 14 L 134 14 L 134 64 L 88 64 Z"/>
    <path id="hit_motor" data-zone="motor" d="M 88 66 L 134 66 L 134 148 L 88 148 Z"/>
    <path id="hit_electrico" data-zone="electrico" d="M 136 30 L 214 30 L 214 88 L 136 88 Z"/>
    <path id="hit_transmision" data-zone="transmision" d="M 136 90 L 230 90 L 230 148 L 136 148 Z"/>
  </g>
</svg>
